P2
5 5
255
100 100 4 251 251 
100 100 4 251 251 
148 148 24 99 99 
154 154 197 123 123 
154 154 197 123 123 
