P2 
3 3 
255
100 0 255 150 20 98 154 200 123